<mxfile host="app.diagrams.net" modified="2023-12-04T08:43:01.855Z" agent="Mozilla/5.0 (Windows NT 10.0; Win64; x64) AppleWebKit/537.36 (KHTML, like Gecko) Chrome/119.0.0.0 Safari/537.36" etag="ztIQf7V785c1hC7afaR3" version="21.6.8" type="github">
  <diagram name="第 1 页" id="qehlAcxDPDAxKGAQX6xT">
    <mxGraphModel dx="594" dy="1590" grid="0" gridSize="10" guides="1" tooltips="1" connect="1" arrows="1" fold="1" page="1" pageScale="1" pageWidth="827" pageHeight="1169" math="0" shadow="0">
      <root>
        <mxCell id="0" />
        <mxCell id="1" parent="0" />
        <mxCell id="l8-R721WcWZ6a8sO2ZRk-3" value="admin" style="rounded=1;whiteSpace=wrap;html=1;fillColor=#dae8fc;strokeColor=#6c8ebf;" vertex="1" parent="1">
          <mxGeometry x="74" y="173" width="120" height="60" as="geometry" />
        </mxCell>
        <mxCell id="l8-R721WcWZ6a8sO2ZRk-4" value="官网H5" style="rounded=1;whiteSpace=wrap;html=1;fillColor=#d5e8d4;strokeColor=#82b366;" vertex="1" parent="1">
          <mxGeometry x="330" y="167" width="120" height="60" as="geometry" />
        </mxCell>
        <mxCell id="l8-R721WcWZ6a8sO2ZRk-7" value="" style="rounded=0;whiteSpace=wrap;html=1;" vertex="1" parent="1">
          <mxGeometry x="54" y="243" width="439" height="166" as="geometry" />
        </mxCell>
        <mxCell id="l8-R721WcWZ6a8sO2ZRk-8" value="后台管理服务&lt;br&gt;luckyprotalparent - web" style="rounded=1;whiteSpace=wrap;html=1;fillColor=#dae8fc;strokeColor=#6c8ebf;" vertex="1" parent="1">
          <mxGeometry x="74" y="261" width="120" height="60" as="geometry" />
        </mxCell>
        <mxCell id="l8-R721WcWZ6a8sO2ZRk-9" value="平台接口服务&lt;br&gt;luckyprotalparent - service" style="rounded=1;whiteSpace=wrap;html=1;fillColor=#d5e8d4;strokeColor=#82b366;" vertex="1" parent="1">
          <mxGeometry x="326" y="341" width="120" height="60" as="geometry" />
        </mxCell>
        <mxCell id="l8-R721WcWZ6a8sO2ZRk-14" value="" style="line;strokeWidth=1;direction=south;html=1;" vertex="1" parent="1">
          <mxGeometry x="257" y="177" width="10" height="229" as="geometry" />
        </mxCell>
        <mxCell id="l8-R721WcWZ6a8sO2ZRk-16" value="&lt;b&gt;&lt;i&gt;站内&lt;/i&gt;&lt;/b&gt;" style="text;html=1;align=center;verticalAlign=middle;resizable=0;points=[];autosize=1;strokeColor=none;fillColor=none;" vertex="1" parent="1">
          <mxGeometry x="90" y="155" width="42" height="26" as="geometry" />
        </mxCell>
        <mxCell id="l8-R721WcWZ6a8sO2ZRk-17" value="&lt;b&gt;&lt;i&gt;站外&lt;/i&gt;&lt;/b&gt;" style="text;html=1;align=center;verticalAlign=middle;resizable=0;points=[];autosize=1;strokeColor=none;fillColor=none;" vertex="1" parent="1">
          <mxGeometry x="348" y="150" width="42" height="26" as="geometry" />
        </mxCell>
        <mxCell id="l8-R721WcWZ6a8sO2ZRk-18" value="" style="line;strokeWidth=1;html=1;perimeter=backbonePerimeter;points=[];outlineConnect=0;" vertex="1" parent="1">
          <mxGeometry x="50" y="557" width="438" height="10" as="geometry" />
        </mxCell>
        <mxCell id="l8-R721WcWZ6a8sO2ZRk-20" value="" style="shape=image;verticalLabelPosition=bottom;labelBackgroundColor=default;verticalAlign=top;aspect=fixed;imageAspect=0;image=data:image/png,iVBORw0KGgoAAAANSUhEUgAAAVYAAABbCAYAAAAoRq3pAAAgAElEQVR4Ae1dB5QTdffl+3+fLEuvAiJsgaV3pKOAdBCQrihKU4oUG01UFMSCSjl27NhQLKgIKoiCIoiiSN9Nz/be+2bv/9wXBuOSTlg2m5lz5kwymcz85s3k5s17991XxWAwQJ1VG6j3gHoPqPeA7+6BKufOnYM6qzZQ7wH1HlDvAd/dA1WioqKgzqoN1HtAvQfUe8B390AVo9EIdVZtoN4Dle8eMGg10J84Dt1fx2A4cxpGg179rZcT3lVJSkqCOqs2UO+BynEPxGsiYf72a2g2rceZ5Qtxcs5UnLhjPE7dMwPnHl8Ow8fbEPfnUSTGxqi/+8uIfVWys7OhzqoN1HvAf++BrKQkJB/YB9OTq3FuylCc698GZzo1xomI2jgeWh3HQ4Lxd3hNnGpbH+d6heHMiJ7QLp2J+E/fR4ZJr/7+LwMGVikqKoI6qzZQ7wH/ugcKCwuRFxeD5O1vQ3/nOGi6XwtNRG2cDamGU82rOp1PtwhCZHgNaDo0gnZMX8RvXo+cc6dQWFCgYoGP8LCKxWKBOntvg5KSEhQXF4M3en5+PvLy8pCZmYmEhASJZ509exa//fYbdu3ahY8++ghvv/02Xn75ZTz//PN44oknsHr1atx///1YsmQJli1bhjVr1uDpp5/G5s2bsXXrVrz//vv4/PPP8eOPP+Lvv/+GRqNBTEwMkpOTxdPgMQvO/yA4DvVaen8tK7ztiotQkpeH/JPHkbB+FbTXt4MmrBq0LariXIuqONuiKs54MHP7qBZVoQ2piqguTRCzaAayfvoWxZnpKCkqhKWkRL2fvMTHKqWlpVBn92xA4MrNzUVaWhpiY2Oh1Wpx9OhRAcy1a9di7ty5uPnmmzFw4EB07twZzZs3R82aNfF///d/qFKlyiXPV111FRo2bIiIiAj07NkTw4cPx7Rp07B48WJs2rQJ33zzDU6ePCmATmDPyMgQ0CVgqNfYvWtc4exUXIySjDQURJ1B+va3ETNnIiLb1YeOYBjyD6CeC68Obc9QGLs0QVRYdUTagC0BlMAr60KCoI2oDW2bOgLE/IxzZEhV6z7Da8B08/VIefk55P31O4pTkmApLFTvHw9xsgrUyaEF+COjBxofHy/eIoGLALZ06VKMHz8eXbp0QYMGDRAUFOQz8PQWgP/73/+iRo0aaNasGfr374/bbrsNDz30EN566y0cOHBAPN309HR51HN4wuoHFcYCpfl5KNRrkP3910hetxymUT2haVXT6l2eB0qCpTLzs8Q19yH93VcQu+AWRA/tAn3HRtCEVoOGYNqmDqL7R8A8cRASVi6EecoQAVPl+8pS8WA14cHQD2iDhAfuQuYXH6Lg7ElYsjKB0tIKY6OKPBAVWMtcHXp39EhPnDiBL7/8Uh7Z6YkOGDBAQIsg6i34lff36CnXqlULbdq0wdixYyXU8Oabb2L//v3Q6/USuuCfhzpVDAuUWkpQnJSA3EP7kfbKc4ibPQH6nqHnwfG8x2kDpgoYcqlpURXm0b1QqIsUDzf3l/1IeeEpJNw9FfGzJyD5yVXI2rVDPi8yaGAe21e+Y7uPsq8JstyvtlNjxEwdiqQNjyBn3zcoijaitLioYhitgo5CBdbzF4Zxyr/++guvvfYaFixYgBtvvBEtW7YUYPrPf/7jN2DqDLzp1V599dUSpmDI4tFHH5XYL8MG/ENRpytjAUt+HgrOnED6+1sRf+8sxAzvDm3bugJqBLeygGfvPQHQFB6M1A2PXPAqSxl7NxtQZNCiNDfnwvrMD96APqLWhXCBvf3ZrlMANqplDZhvaIf4+dOQunUT8v78DZac7Av7vTLWq5hHDXhgJaDQO2XSqF+/fmjSpAmqVq1aKYDUGcgq3izjtVOmTMG7774rCbGKeZtWzlFZMtKQ88NuJK65HzE3Xw9jj+YSHyWQKTFSW4Ar+5rbMPGkDQuGvmeIeKdZX3yIUid/kqUlJUhYvRi6iFrWmKqbwM1j83gcW1RYNei7NEH06F6IXzYPWV/vEE+7cl4l784qoIHVZDLhkUceQceOHcUz9VWSyRmgVcTPlKTYiBEj8NVXX0mIwLvbSf2WKwsQ9AqNOqS++QKibx0J43UtoG9dB1EhQW6BqQKukSFB0HS6GtG3jUL6G1uQf+IYipMTwdis06m0FMWx0cje9al4x7peodCGVXMZFlCOqywJshwDAdrYvRmM4/ojZfN6FJ45idIiNUwQkMDK7D4BpG3btuDjcUUEuysxJoY8goODMXPmTJw+fdrp71P90DMLEPDyfvsZ8SsXiHdpDA+GJjTIrcd8BcyUJUFNP7gzElbdg6wvP0bescMoiDyF4hgzLFkZgKXE9eCY5S4uQhFB/sWnYRjVE5Gtano1Ho6LCTJDeDB0XZogduF0ZO/bZU12uR5JpdwioICViRpSkDZs2IBGjRqpgOqAAsY/mz59+kiSi39C6uS5BZiIsuTmoNCoRfoHbyD61hHQKTQpO4/f4gGef9y291oBVdsl46r6kKoC0JGt60DTrRn0/VvDMLQrYm4bjezdX/wDsqWlKIg8jazdXyDj3VeQ/ORDiF9yB8zThsM44jro+rTEufAaFwErx0Jv2tC6DgydroahdW2n3jVDBRyTvnVtmMb1lyRcYeRpWLIzUVoSOPdSQAErSfXkm6qg6ppTy7DI4MGDcfjwYbAIQp3csEBpqYApE0bZ+/cg+fEHYBjUEdrw6tDZiZsqsdSo8BrQt28AU9emMF/XAuY+4TD3bYno3mEw92gOY5fG0LWti8jQahIuINjZAixfCwCK52iNuxrCqiH21hEo1JyVgRfHxyB68o2yHTmwBD8uOUuBgM0+L+yrVU0Ye7aAecINSN7wKLL3fo2kJ1bAPK4/TD2aQ9OyhsRcHY2HhQva0GrQ9QlH4oNzkfXNZyjUR1k9WSdxYDcsXeE3CRhgJTjs3LlTMv1X4jHbH4/J2Ov8+fOliqzC38lXcID0xIoT45F75ABSX3secTPHQ9u5scQt6VXaAo8CWsywm/pFIHrqEMTdPwfJm9Yi7e2XkLFjG7J2fYqsb3ci68vtSP/oLaRu3YykJ1chZv40RI/tB0P3ZgKyBOayAKu853EMnRsj9YWnJXOf8cm7MHZu/K+xKNsqS0lMEQzbN0D0qF6If2Au+L0ikx5Q/lxLigUc0z98A/FL74RZGAz1JBTgaDya8+CtadcAMVOHIGXjWuT89B2K42IqrRcbMMBKcjzLRwMh4+9LEG/Xrp1Ul6l814uRmzFKEucztr+NhGXzYB7RA9o2dS/yABXgElANrw7zTX3F8yOAFpw7BUtmxj/AdfFhhM5UWliI4uQE5B07gowP30TCfbNh6NtSPEZl/2WXPF70uH7I3rMTsfOmQtvS/qM+Pcuo0Gow9A5D3JyJSH3lWeQdOYiStBSg1AENz2JBSXIicn75ASlbnkTcneOgJ6uBSbUyfybKuDgefsZiBtOgjnIOWV99gpKMdHtn7dfrAgZYydW8++67UVk4qb4ET2f7qlOnDnbv3q3yXG1/5oxXnjqO5GcflcdrPi5rwqs7fCxWgCUqLBix86Yh98jBS0vsWCwojo8Vb9I4vLtDL5RApm1bD+ax/aDt1uxf3q18Rk+SFVk39UXyEyukyqvQoAH5r55MpXl5KNScQ9buz5H06L0wj7wOUa3r4lyI/eQcj03vVhMWDPOA1khav8qTw/nFtgEDrKymWrFiBfh46wxI1M/+HX9t1aqViMioHus/v2eWmUbf1Af69vUFIBw9AiuAyiU9NfNNfZD3+yHAR/FFJsfS335JMvEEK9vjXXgdEgQCOqlRyjoBtg4NETdvGjJ3bBOvuyQ97dLHRS82NVm83biFt4nalsNxnR8vbcfQQ2WbAgZYWQhAilVYWJgKrA7YAPb+VEi9iouLq2z3/SWdT9xdU8TbcgUaCpBxSWCNmznOGq+8pKPbfLm0FNnffQVjn3CnIQHbcfA1QZaCLUnPPIwCzVmU+oj5UZKcgPT3XoP5luEiSWgL5mXHUPa9zVlVipcBA6y8WmQF3HvvvaI4ZQ9E1HX/eKsMmfTt21dYAZXiTvfhSZgn33jB+ysLEI7eE4S1HRsh4+N3XJP43Rkrif7xsUhYuQCRocEej4eeojACul6DuKV3IufgXliys6yxXnf1Iyipl5eD/L+OInHNvaIJS7YBWQae/OnQZpVtCihg5cWj3B9Vn6699lo13urAc6XQDEGVal4q1erin7zJC2AleDA7bujRHCnPP45C7Tnw8Vvime6GBkotsn1JSjJyD/2E2LunSiLIUxCzBf8LABtRC6bxA5C2dTPyT/0liSu7FVQE06xMGX/mx+8gdtbN0LZvKPQtd0Iitse2fX2xlf17TcABKy9XVlYWqPLUq1cvVKtWTQ0NnAdYeqlNmzYVycEjR46IBqd/396XZ/TeAiuBhBqqrFIyDumCpNWLkP7eVuT8/AMKTv8tNKbiWLNQt1ieSo+USlLkorJkNefgPmS8vxUJS+6Ertu1bnmGBF3OBD1lpvZqFJNtYdUveLrcRjzY0CDoB7RG4vJ5yNq5XYoK6MmWFloFXUiTSn5qFcyje0PXurZbY7AFUEevL8+VunJ7DUhgpbmZjKGyP0MDXbt2lVLOQA0FEFApoD1y5EhR91Jjqs5/kJcCrAqwXOB2RtQW2lT0uAESg01cdDuSlt2NpJULkHT/bCQsuAWx00fCPKqn0KE0TsRTCI5CZzoPolYArQFdx0Yw9g5D9IjuiJkyBHF3TUbs/Fug69Hc7iM7wV8bGgRd5yZSZJC6aR3S3twiqlb63uFWGUMHlCrl/DxdOre4/30asMCqXCq2Ufnhhx9EjOWGG25AvXr1AiZEQE4vpRFvvfVWAdRz585JmxnFNurSvgV8AawK8CjepAKIrpbcXgC0TNVUZFh1KUowXt8WMeP6IW7uJCSumI/k5x9D+ruvigJV7q8/Iv/UcdFkTXvteeg6XW0XWG3HJuNhuWy7+hLKuJTHfWW/9pb2Le2/awMeWHnpFA2B48ePS4+pe+65R7zY2rVrVzqQpQ4ApRGHDh2K9evXY+/evaDKF3t2qZN7FvAlsNoDGUfrIvn4HlFLVK2MgzuK98l6/+SnHkLaOy8LjzT3t4PCsaW4CkWzLTlZKC0q/Jdmav7x3yUU4S5IKmDuaFy+WO+e5f1nq4ACVnYiZasVR6LOBFgCDDmvkZGR2LNnD5599llMmjQJrVu3ltYn/lZg8L///U/ax1BUhX8YbGb4yy+/IDo6WpoROrKF/9zC5T/SKwWs2r6tkPjwElHJYpkpS0JL2JMqKxOlBfnW8lAXGX1LQT7i75oMXWi1C/FVXwCjt/sQ0A6tVv4X8TIfMWCAlZVXK1eulM4An376qVuaowRaZsUJyKmpqdI7auPGjZg9ezZ69+4tYYOKpOFK0CeQkvHARoP33Xcftm3bhjNnziAnJ0ce8wmkPC918t4CMV6yArwFH+V7UaFB0LSpC/PUYcj8cjssmZ6Xgqa++jwo0KLs80ouCarGkKrSOsb7q1ExvxkwwHrq1CmRwmOCiokaPgYnJSV5FVMkMLHtdGJiIn799Ve8/vrr0sKaSvxs6dKtWzcpROBx6tevD5aFsvcUm/1xrl69uiTLyEggtYmxTlaEccn3XE9dVG7H7dnplWGJunXrivfZuHFj6WNFL5Ti1DNmzMBjjz2GTz75RECU0ojqo/3l+8El3DfHo9YmvgQvgpGoUoUFizxg6kvPWDP3bJHijLbFxpiHD0DXoaFHxQS+HLuyL54Dmxzq29VH7NzJvi2auHyX3aM9BxSw0stUMv/07MaMGYPPPvsMZrPZJ0BE7VImw+gdG41GEYsm8LLi65133sFLL70EerxPPfWUtIJhiS1ZCeyxRR2DRYsW4YEHHhCe7eOPP45nnnkGW7ZswdatW7F9+3aJh/7555+IioqSR/mUlBTxRFWuqUf3/CVvXBh5BrELpsPMVtMh1a4IUAk4seiAbVL6RSBp9WJRjCqKMQk1quxJFsdFI+72MdDZlLYqQFdeSxkz/xC6NkXM5MGSVCtJTy071ErxPqCAlR6eAqzKkl7g1KlT5ZGZzQRZnaUCVaW4ty/rSZBnmvbmCyIobewZIiWu7iaDfAlkCsAye6/rdg3i5kxC+rZXkf/3H1bVKGrEZmUi5dk1MLSrf0VCAMKfJXe3VyhiZ40XuxVqI31WSntZL7SXOw94YCXAMk7K7qWkWy1evFgSPEePHvU6VODltVC/5m8WYLJTH2WVDbx3FkwD24v4M0GOgOdLAHVnXwQwlpMyDsvmhElPLEf23l3I+OgtmAZ1EEk/d/bjq22EqkU5wr6tpFtB5qfvSb8vX2kTVOTbRQXWMmWdjHNec801kpyaPn26xGJ37dolj/bOGAUV+SKrY7u8FiBQ8FE7+4fdSF6/AqaRPURG0JuaeV+A2gUvNqIWzIM7gNxWqv37Yt/u7IOASu1X46COSHpokYh20z6OYsCs6qpskwqsZYBVCRFwyTgsQwWhoaHSGptKT+vWrcN7772HQ4cOieoT46pqlr2y/Sy8Ox/2uWLMkOWp6W+9APOEgZBKqfOVUO6Aki+3IcDSiy0P75nHYFKNAG4a1QupW9Yj74/DQgdjy22Hk8UiHr/Dz/30AxVYnQCrLciSysTMPTP1zNCTZN+mTRsMHDgQs2bNwhNPPIEPP/xQKFlnz54V0GV2nlQtX065ubmyb3ZRJbj//PPPErLw5THUfTm3QJH2nJV072gzdkAtLBCCfvaeL0QshWWlBJ4rEYf1JViX3RfPRwCVnRGmDEEmW7kwgcY23I66D5y3GzsUsPuAvnszR5b02/UqsLoJrLYg6+w1wbdBgwYICQmR9trUIejXrx9GjRoFhhbYQ4qZ/0cffVSy/i+++CLeeustvPvuu3j11VexadMmPPnkk1Ji++CDDwqpn57yuHHjRHGqY8eOsm+W3vJY119/PcgUsDcxdLF//358/PHHEsrwNcjbO2YgrItdcCsyP/vAmnxxgxPMtip5f/6GhIcWQdczBMbw6iLEUhak/Ok99QT0ZCRQT2DhdOT8vE/aabu8/vzTKchH3tFfEDNjNPStrA0JXX7PzzZQgdXHwOoMdH39GctTb7nlFqFelb3vCKI7duxAixYtJDkXHh6OpUuXCs9V5biWtZZn72On3Ahd6zrSTI/191TNl7JRF7vhI3Gh9ixSX3wGxnH9YezaVGKRfIwuj8f1SwVujlF6Y1HUZVh3JK5dhvw/j4J/HK4miUMnJyD3wF7E3zcbui5NRXtAOW9X3/e3z1Vg9XNgnTZtmvBwy954lEakV1wWzOlBM2RBBSuGFRgjVifPLMCSVgICH4G1Xa9BwpI7kPXFh9L3yZKX+6+6fEd7Zikqs+Rxi2fAdGMn6NrVl6y9AjSXCoK++r6AKQn94TVg6hOO6OkjkfbaRhRGnYFdvdYyJ0y92SKjVkRg4hfeKm1kyrbb5lgr26QCqx8DK+O+lPpjTLfsxBJWFhiwkqssuJL1MGfOHAk5EGTJ3yXIqpN7FrDVCrBSnM5L7N0+BiwZzfv9V/eaBbJkOiMNuQf3Ivnp1YidOkSAh3qtVzoWqwAqu86ah3VDwoN3I2vnRxI/dZTdv2A9cmezs5B/8k8pAoifMxGajlcLFczReV34biV5EVDASlX8siDj7++vu+46SWKVvR9Z5MD4Kj3UsudItgNDBGQ7MBbMBBxBmBVo6uTaArbAqniGBAwB2fYNRLYv8dH7pOtpcWK8Wx6sJSdblPvZMyph4a0w9Apz2kpaOa6vl3IObGHdvgGiJw9GysbHBfjpYbszlWSkIueA9Y8ihiGTzk2gCQ1yGepwZ9/+tE3AACu1RgcPHnwRyJQFHX9736xZM6F/2XukJyuBpbGkjNmeF4sh3n//fdEWGDJkiNDKmHCbMGECKJ2oTs4tYA9YFYBTPD1Nq5ow39BOauHT330FRWwrXeI67MJ4JbsGZP/4LZIeux/GGztDG17DZ0r9yjjLLpmMkuw+u7fOnYSMD15HwZm/rZ63qwQd+28lJUhCj6EN842doWtXz+3QBsG8sk0BA6wUXGHyhpl0W5Dx99dMYFFrgPoEZSfya/mYP2jQoH/pyhJEycVlgotiNBSIoR1om+7du4PqX2pZb1lr/vPe3WaCBFlNWHUYujSBaUwfJD29Gvkn/nSvlJOtpDPShBPLmKZpbD9oW9UU8ON+ywKjt+8JahIr7nQ14pfcKckletnM3LuaJBmni0Lqy8/CNHEgTN2beZyMY7zV2CvM1aH87vOAAVaCzMGDB0V5yt/BtOz4O3ToIBqr9goVyABg80QqZCnfYyhg7Nix0Gq1oBAMlbSUzxi3bd68uSS4/O5uLqcBR986QlpIuwtmArAhQdCHV4eOXVEX3Y7cn/fDUuBGxRHpSSXFKE5JRObO7eCxteHVpXnfpQCsAqj6zo0Rf/8c5B07bAVTV94pheGLi6QTAVkB+v6tYWhV0yv6GAGdaltZX31cTleu/A4TMMBKkxJkqBJFIKKnp4CJvy95LvTGKdBtb6J3yoSV7XkyvkpFLQp4265XXpMvS6Fv1XO92KLpb78Ec49r3X7UtQVggqG0iCahfupQZGx/B0XRpvOgZrn4YGXWMFSQe2g/4pbOlDisIaKW2+PgseX4EbVg6BOG+JULkH/8qHtUseIiCQvk/rIf8UtnSuyUwEiAtj0/V695fEoGGtrVg3nCDcj5YY97HnwZO1T0twEFrLwYBIp9+/YJYZ9apwqQ+Puyffv2YBzZ3sSOAawSsz1HCs84C4vQc6W27O+//+6w44K9YwXCOnJWs776RNpFGykdGBrsMjlTFnAIMOKxtappLQHdtA55vx9CSXKie7HY4mLp3Mrwgpmc2B7XXmiFTbBTQJRLvhf+aefGMA3vjsTHH5CCBZf803+1un4bsTPGQNO2nozbE0C9MIawYBi7XystZdJe3wx2pIUbHrI/3lMBB6zKReJjMBX2u3Tp8q/HZFvw8afXLLWltqy9VivUhiUjgmDpyTlxn9SLtRe/VewYyMsiswFpr29B7MzxMPZtKXXyCqiVBVJH7wk6WonFBsMwoI217fRXH0vLaykLdWFgckkpwUcFq/jl80TVinxTfeerwcd8Q4/miL6xk4yRVLCCc6dcA7fFAsoisvghdfMTiJ44ENo2dTyO7yqASg6s+fq2Utqb/sHrVmFrZ/oBLs7ZHz4OWGDlxSGJ/scffxQi/bBhw8AMO+OPnoBPRdmWoLls2TK72gTkqM6dO1c6FHg6XoYQKNJd4E480B/ueB+PkQkc9p/K/PwDJC67G6ahXRDVkjFHz6qpCEJUhZLsfLdrEH/HWKS+tAG5Rw6iJD3NtWd3XneV3FHGYtPe2IK0t14QwM3Z/y34JwBXrITSUtmObV8SV90D8/Du0Lau7dW58A9G07q27CNx9WJk7dmJ4oRYu+dRyqKKSjYFNLAq1zI7OxsnT56UhI3SodU2oeMpGF2p7QcMGCC9uZTzsl1+9NFH0qPLm7HR27VXhGC7/4B6ba8FSkkJihPjkPPLD0h57jFEj+2HqFY1xRv15LGZnq2AUkgQdO0bInp0LySsWoisXZ/K/l0Jm8h1YMKruMgau7Q31rIXy2JBoV4jnV7pfZv6tpJKK6+87/N6sNGTBom3m3vIWvJb9pDKe4Yj6MVWtkkFVpsrSvoR+1hR1IR9rBYuXCiP0KQnefoY7Q2AXep3GDP+448/bM7on5d8nCfwenMMatQ+/PDD/+wswF8VnPrLbvsTMQs9x8wM6UOV8eEbiL1zPLQdGjqtOnIWJqAHq42oDVPfloi+fbSo7xeZ9XY9P08vC9kG1C5IefEZmCcNgrHbNZII8xRQuT0TciKwfcdNyPjgDWsfrqxMhxqsHGtRrBnJzz8u5+bp2Cv69gEDrARNSuxRPerEiRNOs92kLZFBwFBBfHw8jh07Jn2nlO6sbOZXUYGWFVT2Jp4TVbS8AVZ+p2nTpvj777/t7Trg1pEulf7OK3CqM0paUlEhSpKTkHPgeyQ8eBd03a+Fjp1WPcykE3glVBAaDGP7+tBd31YSUGy/4k69/kUXiB6qQYPk59bAOLQL9G3rSXKLx3AE8vbW8zyEA9uhEeIXzZCKq5K0VKsoi5OkFPUUcvZ9g5jpI6WhYGRI0EVD9PcVAQOsBEjGGQkSzKB//fXXduORri4o45UmkwmHDx8Wr5bkfLZ0adWqlcgFssMq47SkQDHzrswEYtvZU4Cz/S73yf3zOOSnsjyVpa3s3UX5QUfTc8895zWwcrzkw6oTwPbX2tBqMN8+Brm//gQKjbjMbltKRLgkecOj0PZvDWNYNWhDXJd62gM0xUPUtm+ImHnTpIkgS2Kd1vAT6DgGow7JTz0EXa9Qq5fpIZhyPCIZGFpNJBATHlkCevDct9OJ4Yn8PGR/9yWibx8jyTDbPxin3/XDDwMGWGNjY3HHHXdcABa2pV61apV0PGWM1V423d3ryXJShhDYYpvi0+R/fvDBB9Jh9ZFHHpHKKMr7UVOV7apZm8/Ghj179pRKp86dO6NTp04gd9R25voePXqInuvQoUNx8803y5/DmjVrxIPmn8ORI0ekxp/tuJ1NPEf+AXgK6LbbU1fW1XGcjaGyfGarbsXH39jZE5C1c7uUoloFnkudnipjsRnbXoX51hEw0Iv1gItqC7QEWPEY29aFeeJApDHrf/o4ipMTUJKZLpVbpG8VmvTI+fFb8Zo1XZpYATXEfe+Unqx4zGHBMJGyNbo3kjeutSpcOUuIMSySmyN2ydyxDeapQ4Q5wTGX9Y6dGswPPwxYYCVg0Auk90qgIiDSq2UIwNcTH8PJnyUAMyTBYzDLzlADW1hTwo8CKPSEbWf+GZD0T8Fqfof7sFdd5c54WXVG1oMtUHr6mp0Tzpw5487hKvU2tloBBAiWZWrb1kX01CFIf7lakTkAAA5hSURBVGML8o//IS1aXHmxlsx08eASVsyHeeR10HdshKhQz5WtZAzMwjPh1TsMsXeOAzPxiSsXIG72RJhG9ICmfUNpfU0wtgVnZ6+5X25PZoB5QGvEzrwZ6e9vRVG0wXl3ALaoSU1G3rEjoj1rHj9AeoDZA1Tl+JXthgloYFWAhckZeorz5s2TOCRJ8QS0S/FiK9KNwvN49tlnL5mvyxDESy+9VJFO7YqMxRZYFWAgCJFiRRBiJj953XJk7/vG2qbEheatJTtbpAZTtqxH3B03wdAzRGKeBDXuVzmGO0tJdjGRdH4W0LfjITrblwBqSBC07eojekxvJD68BFl7vpDiBacGJ/811ozsb79E0uMPCqBrW9Vyi67ldL9++KEKrDZ6rIxZMjHF7PmiRYvw2muvCc+VXiQ9TX+d+PjOWLA9bVblz8XdJcMZmZmZ/moKn4zbHrAqQCUAS0+Pj803tEP8wumgulXB2ZPWWKyTEVD4pFBz7jwndh5MQ7qI8IqnnFhlLJ4uFVDWdboasbePRuqLT1t5tBkueLTFRSjQnhU2QPw9t13oCuvuHwNtVtkmFVhtgNUWXAhCBFl6soyLsgLpzTfflGaBOp3OrwjzGRkZmDRpkk+KH6jfyrBJIE/uqlsRWDShwRJHJa8z6clVyDtyEKX5LgjxFnJi45F3+KB0O42ecAMoOG1Ped9T8LS3vTzuSzeEpkhYdBsyP3tf4qeW3GynSTn+ETDskfL846D2qrFHczlf7s/eceytE3Wr/hGV7nZSgdUBsNqCLB+BWTDQqFEjEYZmBp6JJFY6kcK0d+9eoXDRs2XMtDyqlBivZYyW8dnIyEgB/O+++85ucokeJhkDvqgqIwuBUoOBPMXecZPwPe0Bhb11yqO1oW09GPq3hjQj/PpTlGRmODdjqQWWnCwU6qOQ+ek2xMwcJ4/n5Ix6Al72xsR1CqDqujdDwrK7RdyFuqqu+ncxQUfif/yqhTAN6QxD+wZuC8EoY6FNGHNl2CPr6x3O7eCHn6rA6gaw2oIsXzPpRbAlUNGzJegScFj+ScV+erjsyMoqLgpNv/zyy6JxeuDAASk+IHuAYGgwGBATEyOMArIKWNPP5BBjvD/99BO++eYbEaNmSSljm08//TTYufXOO+8UhgFDFi1btkSdOnVkDP3797dbeUWKGFuxMJZc9lw8fU+a1+jRo2Xcfni/+2TImTveE7k7AoMCFO4uBVDCqsHQujaMN/UVwn9xbLTrcTFxmZeD/D8OSZsUZvd5fIYJ3D22sh0BVRS2OjdB/LJ5yPvrKKy9upyra1kKC6z809kToe90tcggRrUI8vj41EbQhVdH9JShyD30k3dcXNcWu6JbqMDqBbB6CkYKGBOICW4EY/JdCcicKXbCma/5GbfhtgRvgri7x6OCFYHa3kRQVtS8uG/Suyhq7cn+lXFQavD777/3mqFgb3z+ti7n5x9gGHkdjG3rQhtWzeMkE0GOAKMPC4Z+QBsJE5Dwb8nOpASbS3MU6TVI2fyEdEvVyxicK2xd8JojagmHNeGhe5B//HfnLatLLSJnWBwXDVaRUWxbExYsgM79KUDtzpLba8OCxbs1jR8gZawlaSkuz9NfN1CBtZyAVQGly7msV6+ecGnt3YwEQsaMeXx61w888ADWrVsnAO/pmNhxYPHixdDr9X6d1LNnJ0/WERjIR42ePgrGniGSaCKAeAo6JMoz1sjKrIR7ZyJ7z04RQ7Hk5TiNcbIggGWhGR+9iZi5k2Ea2A6GDg0uVFFxHJQLJE/W1O0amMb0RtJza1Bw5oRThSuWugpd6o/DSNm4FsYRPURc2xldyh64Krbg8c19whEz62Zk7Ngmylme2Nkft1WBtRIBKwGSYQN7U2pqqoQn6A1T5Prbb7+VjgosQPDGa2WBBVtvs0iBybGAnUotkmjK3PkR4u+bDfPQrpJo8iaTr8Q8SXOKZZvprRuR98evkEZ+LiqbSjLSkXv4AFI2rUPMnImInjgI0ZNvRMzsiUh4eInwTwt1UU4vE4VbCtmqevfnSHxoEQwD2wv/1NNzEUAnp7ZdfWuH1+XzkP39V7BkpDs9fmX6MKCAlbFJT70zf9t+ypQpDu/P06dPS7XZ5s2bkZ6eLrSpDRs2gM0FvTlPhipYYMF9MGkX0BOLQFKTrR1Kn3kYsZMGQtu+gVUK0JvHZsZPW9eBeVRPJD2yVBI8lCd0Kf1HLmlinOiuFkSdEak+6V/lpHafJbnUaU3f9iri7poMvfBoPS9UsP4xBEHXqTFipg1DyvOPidqXyyRdJbxxAgZYmRyaP3++xC29ARF/+Q7jn8nJyQ5vVXJabavLyGRgYosxXm/PkWyJJUuWSBLO4YED6ANLdpao+7OVdfy8adD3aC7aAra18fYencuuE8+PlK2WNWEim2D2BKRu3SQNBl1l7t0xt9ClTvyJlBeeEg9Z37WpMAUIkGXH4uy9EsrQdm2K+LungufN0lrRL3AC6O6M0V+3CRhgZVnoCy+8cFEraG/BpKJ+j8kv8m3dnVgiSy1aMhnogXp7XkyMMTRApoM6WS1QWlggdfI5P+xG0pr7YLihHXThwV5l8pV4qXR8HdEDCY8sBRNoBHFPJ8ZQ808ck4SZ+aY+kuFnLJbHcAagZT+zAmoQ9L3CkLhyoegRsHW3eMieDqqSbR8wwEoAoewdxUy8iSl6CzhX4nvM+BMs3Z1Y8srtSRW7lPES1Amu1DhQJxsLlJQIAPJxO/WV54RNoA0N8jq7TgDUR9SShBkTQlT8lwy7C++wtLgYecd/Fx0BY/820Lep4zH/lODKmKs+PBjGQR2QsuFRaelNDVqXClc2JqnsLwMGWJULuX//fgGQygyu5JqOHDlSeLHKebuzJLfW22SWAshkHKxcuVKEY9w5ZiBuQ9I/SfHm6SOha1MH+tAgRHrBRyXA6s5zQg2DOyH5ucdQcO60lRfKzgEWi2jGFqemIGf/HsTMmYSoiFrCYfXUOyWgkh5maFkdhmHdkLZ1E0jDciU0E4jXl+cccMDKk6bgNaX7FF6nAgqVaUme7NixY8E/ElZeuSsoQ5UtVmmx6MCd0AD/oGhHUr0Ya6UgNp8KAr3s1R1AKc3Pl2qn+BXzxfvTt69/gSpV9rHb1XvxIpnw6tgIxpHXSTw2fuFtiJ4yBLq+LUExFK/oUszus11292aIvm0UMj99DyWpAZ6odOPiBiSw0i5sFb1ixQq0a9fukhI3FRmMCXoRERFYvXq1VHKRd8oSWFKvHAEtQybchswB6reyLY0zgOXj/+TJk/Hqq6/i888/l9Ja2jYnJ8eN20/dhBZgLDb/1F+gulX0tGEw9QpFVFh1SSR56lkqlC2CKGfyYxkL9WQ/3JYxV32HhtIMMH7lAlHqsqjX1O0bNmCBlRZiTT9LR6lkxSokel3OQKQig6izsV111VUICwsTfYNZs2Zh+fLl0gGBegOOJjIH2MKGrV7ogZK36ugYBOB9+/aJ3qyj/anr3bDA+Y6vJNHH3TsL0eyS2qauV5QtVx6uvc8JylEhQdB3vxaxt40STmze0UPW7L4bw1c3+ccCAQ2sNAM9NHIwWce/ceNGSb6wzQrjlI6AxN/XM0zAbgoajeafO8HBK9KzmPTbsmWLxG3r1q17kV3oGXfp0gXbtm37F5XLwS7V1W5YoDglCbk/75PKJ3JCyQ1lKxdK+9kDxUtZR4+WgGro0xLxS+6QltkFkafAUIU6eWeBgAdWxWwEWFKySBdi+edjjz2G8ePHo23btpcsEF0RgJieeJMmTTB8+HAJDbBiitxenrc7EwGWLbBJ5aJdGjZseBHAhoeHS88tZ56wO8dStzlvAbY2yc4SLdeMT94RbVddj2utj/c+AFgCqia0mihuJT28GLk/7pESWVZgqdOlWUAFVjv2Y/yRknykDR0/fhxffPGFAC1VnagmxVr5is4qoMfN+CiFWShOzUaC9MpZEMBkFsHPXVC1NRHDJ0xwUXmLHReoz6qET2iTDh06YPfu3bZfUV/7wAKMw4pG65GDSFq3XIRb2NCQmXpP4qf0bAmoesZQ+7YSpf+83w9Z6VpkEqiTTyygAqsLMxJ8CLSMOVJ+j+pRZBXwsZfNCAm29NQItlSNKm/vlKDGBBKz+AxhTJgwQaQKd+zYIW276ZXSE2cHBG+A1JF5aBN6sSyTXbt2rZS2Esw5Dxs2TLxbR99V11+CBdjtlIUHMSakvfUijKN7Q9eyhiSqnFVMEXyZyDIwodUzVIoDyKvlvlTK1CVcDwdfVYHVgWHcXU2wIuBSR5WeGkVQ6B2Sy3nXXXdh4sSJkl1nx1Vm6Js3by4qU4xVciYgskmfMvM91zORxhp+bk/ApCdI/VXuj6W57P7KSjICKD1RxksJdFdqohALPfsZM2aIJCGTXgR0dbq8FijJSEPWrh2ImTtJkk5GygKGsbqL8dggKaU1tKoJffsGMI3tb9V/Jf9UnS6rBVRgvYzmJejS02VYgRSnpKQkJCQkSIiBj+QEQ4peHzt2DEePHhURbAK0VquVx22GItg5lt9jgo374f586Xn6+vTpGfMcOW411upr6zren6UgHwUn/0TK5vVSCGCeNAjGsf0RPeMmJK5dhuy9u6QdtuM9qJ/40gIqsPrSmuq+VAtUAAuU5uVJPJadCdhimxVY6lS+FlCBtXztrR5NtYBqgQCwgAqsAXCR1VNULaBaoHwtoAJr+dpbPZpqAdUCAWABFVgD4CKrp6haQLVA+VpABdbytbd6NNUCqgUCwAIqsAbARVZPUbWAaoHytYAKrOVrb/VoqgVUCwSABVRgDYCLrJ6iagHVAuVrARVYy9fe6tFUC6gWCAALqMAaABdZPUXVAqoFytcCKrCWr73Vo6kWUC0QABZQgTUALrJ6iqoFVAuUrwVUYC1fe6tHUy2gWiAALPD/QGSJh6AKuHkAAAAASUVORK5CYII=;" vertex="1" parent="1">
          <mxGeometry x="127.5" y="438" width="269" height="71.58" as="geometry" />
        </mxCell>
        <mxCell id="l8-R721WcWZ6a8sO2ZRk-22" value="LUCKYCAPI" style="rounded=1;whiteSpace=wrap;html=1;fillColor=#d5e8d4;strokeColor=#82b366;" vertex="1" parent="1">
          <mxGeometry x="326" y="261" width="120" height="46" as="geometry" />
        </mxCell>
        <mxCell id="l8-R721WcWZ6a8sO2ZRk-23" value="" style="line;strokeWidth=1;html=1;perimeter=backbonePerimeter;points=[];outlineConnect=0;" vertex="1" parent="1">
          <mxGeometry x="54" y="329" width="438" height="10" as="geometry" />
        </mxCell>
      </root>
    </mxGraphModel>
  </diagram>
</mxfile>
